<mxfile host="65bd71144e">
    <diagram name="Page-1" id="c6NKw6LOpBMpRFbVPmcq">
        <mxGraphModel dx="898" dy="562" grid="1" gridSize="10" guides="1" tooltips="1" connect="1" arrows="1" fold="1" page="1" pageScale="1" pageWidth="827" pageHeight="1169" math="0" shadow="0">
            <root>
                <mxCell id="0"/>
                <mxCell id="1" parent="0"/>
                <mxCell id="rL9iKG0cMEZWAQgyK-Lb-1" value="Customer" style="shape=umlActor;verticalLabelPosition=bottom;verticalAlign=top;html=1;outlineConnect=0;" parent="1" vertex="1">
                    <mxGeometry x="110" y="80" width="30" height="60" as="geometry"/>
                </mxCell>
                <mxCell id="rL9iKG0cMEZWAQgyK-Lb-2" value="Manager" style="shape=umlActor;verticalLabelPosition=bottom;verticalAlign=top;html=1;outlineConnect=0;" parent="1" vertex="1">
                    <mxGeometry x="500" y="80" width="30" height="60" as="geometry"/>
                </mxCell>
                <mxCell id="rL9iKG0cMEZWAQgyK-Lb-5" value="See all products" style="rounded=0;whiteSpace=wrap;html=1;" parent="1" vertex="1">
                    <mxGeometry x="200" y="20" width="90" height="30" as="geometry"/>
                </mxCell>
                <mxCell id="rL9iKG0cMEZWAQgyK-Lb-6" value="See specific product" style="rounded=0;whiteSpace=wrap;html=1;" parent="1" vertex="1">
                    <mxGeometry x="200" y="60" width="90" height="30" as="geometry"/>
                </mxCell>
                <mxCell id="rL9iKG0cMEZWAQgyK-Lb-10" value="Sort by category" style="rounded=0;whiteSpace=wrap;html=1;" parent="1" vertex="1">
                    <mxGeometry x="200" y="100" width="90" height="30" as="geometry"/>
                </mxCell>
                <mxCell id="rL9iKG0cMEZWAQgyK-Lb-12" value="Make an order" style="rounded=0;whiteSpace=wrap;html=1;" parent="1" vertex="1">
                    <mxGeometry x="200" y="140" width="90" height="30" as="geometry"/>
                </mxCell>
                <mxCell id="rL9iKG0cMEZWAQgyK-Lb-14" value="See order history" style="rounded=0;whiteSpace=wrap;html=1;" parent="1" vertex="1">
                    <mxGeometry x="200" y="180" width="90" height="30" as="geometry"/>
                </mxCell>
                <mxCell id="rL9iKG0cMEZWAQgyK-Lb-18" value="Update info" style="rounded=0;whiteSpace=wrap;html=1;" parent="1" vertex="1">
                    <mxGeometry x="200" y="220" width="90" height="30" as="geometry"/>
                </mxCell>
                <mxCell id="rL9iKG0cMEZWAQgyK-Lb-19" value="Update categories" style="rounded=0;whiteSpace=wrap;html=1;" parent="1" vertex="1">
                    <mxGeometry x="590" y="20" width="90" height="30" as="geometry"/>
                </mxCell>
                <mxCell id="rL9iKG0cMEZWAQgyK-Lb-20" value="Change Order status" style="rounded=0;whiteSpace=wrap;html=1;" parent="1" vertex="1">
                    <mxGeometry x="590" y="60" width="90" height="30" as="geometry"/>
                </mxCell>
                <mxCell id="rL9iKG0cMEZWAQgyK-Lb-22" value="Update Prodcut info" style="rounded=0;whiteSpace=wrap;html=1;" parent="1" vertex="1">
                    <mxGeometry x="590" y="100" width="90" height="30" as="geometry"/>
                </mxCell>
                <mxCell id="rL9iKG0cMEZWAQgyK-Lb-23" value="Create new Prodcuts" style="rounded=0;whiteSpace=wrap;html=1;" parent="1" vertex="1">
                    <mxGeometry x="590" y="140" width="90" height="30" as="geometry"/>
                </mxCell>
                <mxCell id="rL9iKG0cMEZWAQgyK-Lb-24" value="Delete Products" style="rounded=0;whiteSpace=wrap;html=1;" parent="1" vertex="1">
                    <mxGeometry x="590" y="180" width="90" height="30" as="geometry"/>
                </mxCell>
                <mxCell id="rL9iKG0cMEZWAQgyK-Lb-25" value="Delete Category" style="rounded=0;whiteSpace=wrap;html=1;" parent="1" vertex="1">
                    <mxGeometry x="690" y="20" width="90" height="30" as="geometry"/>
                </mxCell>
                <mxCell id="rL9iKG0cMEZWAQgyK-Lb-27" value="Add ProductImage" style="rounded=0;whiteSpace=wrap;html=1;" parent="1" vertex="1">
                    <mxGeometry x="690" y="60" width="90" height="30" as="geometry"/>
                </mxCell>
                <mxCell id="rL9iKG0cMEZWAQgyK-Lb-28" value="Change&lt;div&gt;&amp;nbsp;ProductImage&lt;/div&gt;" style="rounded=0;whiteSpace=wrap;html=1;" parent="1" vertex="1">
                    <mxGeometry x="690" y="100" width="90" height="30" as="geometry"/>
                </mxCell>
                <mxCell id="rL9iKG0cMEZWAQgyK-Lb-29" value="Delete&lt;br&gt;&lt;div&gt;&amp;nbsp;ProductImage&lt;/div&gt;" style="rounded=0;whiteSpace=wrap;html=1;" parent="1" vertex="1">
                    <mxGeometry x="690" y="140" width="90" height="30" as="geometry"/>
                </mxCell>
            </root>
        </mxGraphModel>
    </diagram>
</mxfile>